<svg width="60" height="60" viewBox="0 0 60 60" fill="none" xmlns="http://www.w3.org/2000/svg">
<rect width="60" height="60" rx="30" fill="url(#paint0_linear_15635_75)"/>
<path d="M31.8421 44.2105V23.0463C33.4526 22.4779 34.741 21.1895 35.3095 19.5789H41.3158L36.0484 31.8758C35.7263 32.6147 35.6126 33.4674 35.84 34.2442C36.5789 36.7074 39.1747 38.5263 42.2631 38.5263C45.3516 38.5263 47.9663 36.7074 48.6863 34.2442C48.9137 33.4674 48.8 32.6147 48.4779 31.8758L43.2105 19.5789H45.1053C46.1474 19.5789 47 18.7263 47 17.6842C47 16.6421 46.1474 15.7895 45.1053 15.7895H35.3095C34.5326 13.5726 32.4295 12 29.9474 12C27.4653 12 25.3621 13.5726 24.5853 15.7895H14.7895C13.7474 15.7895 12.8947 16.6421 12.8947 17.6842C12.8947 18.7263 13.7474 19.5789 14.7895 19.5789H16.6842L11.4168 31.8758C11.0947 32.6147 10.981 33.4674 11.2084 34.2442C11.9284 36.7074 14.5431 38.5263 17.6316 38.5263C20.72 38.5263 23.3347 36.7074 24.0547 34.2442C24.2821 33.4674 24.1684 32.6147 23.8463 31.8758L18.5789 19.5789H24.5853C25.1537 21.1895 26.4421 22.4779 28.0526 23.0463V44.2105M28.0526 44.2105H12.8947C11.8526 44.2105 11 45.0632 11 46.1053C11 47.1474 11.8526 48 12.8947 48H47C48.0421 48 48.8947 47.1474 48.8947 46.1053C48.8947 45.0632 48.0421 44.2105 47 44.2105H31.8421M45.8063 32.8421H38.72L42.2631 24.5811L45.8063 32.8421ZM21.1747 32.8421H14.0884L17.6316 24.5811L21.1747 32.8421ZM29.9474 19.5789C28.9053 19.5789 28.0526 18.7263 28.0526 17.6842C28.0526 16.6421 28.9053 15.7895 29.9474 15.7895C30.9895 15.7895 31.8421 16.6421 31.8421 17.6842C31.8421 18.7263 30.9895 19.5789 29.9474 19.5789Z" fill="white"/>
<defs>
<linearGradient id="paint0_linear_15635_75" x1="30" y1="0" x2="30" y2="60" gradientUnits="userSpaceOnUse">
<stop stop-color="#2154B2"/>
<stop offset="1" stop-color="#1A4FB0"/>
</linearGradient>
</defs>
</svg>
