<svg width="60" height="60" viewBox="0 0 60 60" fill="none" xmlns="http://www.w3.org/2000/svg">
<rect width="60" height="60" rx="30" fill="url(#paint0_linear_15635_2)"/>
<path d="M13.9992 32.427V38.225C13.9992 39.7312 14.8245 41.1343 16.145 41.8564L26.4617 47.4893C27.6997 48.1702 29.1853 48.1702 30.4233 47.4893L40.74 41.8564C42.0605 41.1343 42.8858 39.7312 42.8858 38.225V32.427L30.4233 39.236C29.1853 39.9169 27.6997 39.9169 26.4617 39.236L13.9992 32.427ZM26.4617 12.4952L9.06781 21.9865C7.64411 22.7706 7.64411 24.8339 9.06781 25.618L26.4617 35.1093C27.6997 35.7902 29.1853 35.7902 30.4233 35.1093L47.0125 26.0513V38.2456C47.0125 39.3804 47.941 40.3089 49.0758 40.3089C50.2107 40.3089 51.1392 39.3804 51.1392 38.2456V25.0196C51.1392 24.2562 50.7265 23.5753 50.0662 23.2039L30.4233 12.4952C29.8137 12.1701 29.1334 12 28.4425 12C27.7516 12 27.0713 12.1701 26.4617 12.4952Z" fill="white"/>
<defs>
<linearGradient id="paint0_linear_15635_2" x1="30" y1="0" x2="30" y2="60" gradientUnits="userSpaceOnUse">
<stop stop-color="#2154B2"/>
<stop offset="1" stop-color="#1A4FB0"/>
</linearGradient>
</defs>
</svg>
