<svg width="60" height="60" viewBox="0 0 60 60" fill="none" xmlns="http://www.w3.org/2000/svg">
<rect width="60" height="60" rx="30" fill="url(#paint0_linear_15635_69)"/>
<path d="M19.3269 36.9279C20.1968 36.9279 20.9086 36.2162 20.9086 35.3462V27.4376C20.9086 26.5677 20.1968 25.8559 19.3269 25.8559C18.4569 25.8559 17.7451 26.5677 17.7451 27.4376V35.3462C17.7451 36.2162 18.4569 36.9279 19.3269 36.9279ZM28.8172 36.9279C29.6871 36.9279 30.3989 36.2162 30.3989 35.3462V27.4376C30.3989 26.5677 29.6871 25.8559 28.8172 25.8559C27.9472 25.8559 27.2355 26.5677 27.2355 27.4376V35.3462C27.2355 36.2162 27.9472 36.9279 28.8172 36.9279ZM43.5588 18.9912L30.2407 12.3322C29.355 11.8893 28.2952 11.8893 27.4095 12.3322L14.0755 18.9912C13.4112 19.3234 13 20.0035 13 20.7311C13 21.8225 13.8699 22.6924 14.9613 22.6924H42.6889C43.7645 22.6924 44.6344 21.8225 44.6344 20.7311C44.6344 20.0035 44.2232 19.3234 43.5588 18.9912ZM13 41.6731C13 42.5431 13.7117 43.2548 14.5817 43.2548H32.6133C32.2812 42.2425 32.1072 41.1828 32.0439 40.0914H14.5817C13.7117 40.0914 13 40.8032 13 41.6731ZM39.8892 29.4306V27.4376C39.8892 26.5677 39.1775 25.8559 38.3075 25.8559C37.4376 25.8559 36.7258 26.5677 36.7258 27.4376V31.0123L39.8892 29.4306ZM40.7592 32.5308L36.014 34.9033C35.4762 35.1722 35.1441 35.7258 35.1441 36.3269V39.3796C35.1441 43.3656 37.8488 47.0984 41.471 48C45.0931 47.0984 47.7979 43.3656 47.7979 39.3796V36.3269C47.7979 35.7258 47.4657 35.1722 46.9279 34.9192L42.1827 32.5466C41.9636 32.4316 41.7203 32.3703 41.4729 32.3675C41.2254 32.3648 40.9808 32.4207 40.7592 32.5308ZM39.2249 42.1476L37.9595 40.8822C37.7389 40.659 37.6152 40.3578 37.6152 40.0439C37.6152 39.7301 37.7389 39.4289 37.9595 39.2056C38.4182 38.7469 39.1775 38.7469 39.6362 39.2056L40.3321 39.9016L43.3058 36.9754C43.7645 36.5167 44.5237 36.5167 44.9824 36.9754C45.4411 37.4341 45.4411 38.1933 44.9824 38.652L41.4552 42.1476C41.3088 42.2943 41.135 42.4106 40.9437 42.49C40.7523 42.5693 40.5472 42.6102 40.34 42.6102C40.1329 42.6102 39.9278 42.5693 39.7364 42.49C39.5451 42.4106 39.3713 42.2943 39.2249 42.1476Z" fill="white"/>
<defs>
<linearGradient id="paint0_linear_15635_69" x1="30" y1="0" x2="30" y2="60" gradientUnits="userSpaceOnUse">
<stop stop-color="#2154B2"/>
<stop offset="1" stop-color="#1A4FB0"/>
</linearGradient>
</defs>
</svg>
