<svg width="89" height="12" viewBox="0 0 89 12" fill="none" xmlns="http://www.w3.org/2000/svg">
<rect width="89" height="12" fill="#F5F5F5"/>
<path d="M-344.4 -69C-344.4 -70.1045 -343.505 -71 -342.4 -71H1925.6C1926.7 -71 1927.6 -70.1046 1927.6 -69V4963C1927.6 4964.1 1926.7 4965 1925.6 4965H-342.4C-343.505 4965 -344.4 4964.1 -344.4 4963V-69Z" fill="white"/>
<path d="M-342.4 -71V-70H1925.6V-71V-72H-342.4V-71ZM1927.6 -69H1926.6V4963H1927.6H1928.6V-69H1927.6ZM1925.6 4965V4964H-342.4V4965V4966H1925.6V4965ZM-344.4 4963H-343.4V-69H-344.4H-345.4V4963H-344.4ZM-342.4 4965V4964C-342.952 4964 -343.4 4963.55 -343.4 4963H-344.4H-345.4C-345.4 4964.66 -344.057 4966 -342.4 4966V4965ZM1927.6 4963H1926.6C1926.6 4963.55 1926.15 4964 1925.6 4964V4965V4966C1927.26 4966 1928.6 4964.66 1928.6 4963H1927.6ZM1925.6 -71V-70C1926.15 -70 1926.6 -69.5523 1926.6 -69H1927.6H1928.6C1928.6 -70.6569 1927.26 -72 1925.6 -72V-71ZM-342.4 -71V-72C-344.057 -72 -345.4 -70.6568 -345.4 -69H-344.4H-343.4C-343.4 -69.5523 -342.952 -70 -342.4 -70V-71Z" fill="black" fill-opacity="0.1"/>
<rect width="1280" height="2794.97" transform="translate(-307.4 -12)" fill="white"/>
<mask id="path-3-inside-1_204_2400" fill="white">
<path d="M-252.4 -12H917.6V54H-252.4V-12Z"/>
</mask>
<path d="M-252.4 -12H917.6V54H-252.4V-12Z" fill="#EAF1F6"/>
<path d="M917.6 -12H916.6V54H917.6H918.6V-12H917.6ZM-252.4 54H-251.4V-12H-252.4H-253.4V54H-252.4Z" fill="#2154B2" mask="url(#path-3-inside-1_204_2400)"/>
<path d="M6.49993 0L8.30781 4.21847L13 4.58359L9.42498 7.55586L10.5173 12L6.49993 9.61847L2.48272 12L3.57502 7.55586L0 4.58359L4.6922 4.21847L6.49993 0Z" fill="#FDC20C"/>
<path d="M25.4999 0L27.3078 4.21847L32 4.58359L28.425 7.55586L29.5173 12L25.4999 9.61847L21.4827 12L22.575 7.55586L19 4.58359L23.6922 4.21847L25.4999 0Z" fill="#FDC20C"/>
<path d="M44.4999 0L46.3078 4.21847L51 4.58359L47.425 7.55586L48.5173 12L44.4999 9.61847L40.4827 12L41.575 7.55586L38 4.58359L42.6922 4.21847L44.4999 0Z" fill="#FDC20C"/>
<path d="M63.4999 0L65.3078 4.21847L70 4.58359L66.425 7.55586L67.5173 12L63.4999 9.61847L59.4827 12L60.575 7.55586L57 4.58359L61.6922 4.21847L63.4999 0Z" fill="#FDC20C"/>
<path d="M82.4999 0L84.3078 4.21847L89 4.58359L85.425 7.55586L86.5173 12L82.4999 9.61847L78.4827 12L79.575 7.55586L76 4.58359L80.6922 4.21847L82.4999 0Z" fill="#FDC20C"/>
</svg>
