<svg width="59" height="58" viewBox="0 0 59 58" fill="none" xmlns="http://www.w3.org/2000/svg">
<path d="M15.8195 15.5432C18.9623 15.65 22.1388 15.5552 25.2846 15.551L42.7539 15.5425C43.6069 17.9885 44.2072 20.4648 44.6381 23.0212C43.5253 24.0359 41.4775 24.9659 40.0968 25.6266C37.5638 26.7723 34.7541 27.7847 31.9959 28.1824C30.8337 28.35 29.6632 28.465 28.4879 28.4037C23.5945 28.1482 17.8868 25.7699 13.9879 22.8606C14.4089 20.3579 15.1155 17.9772 15.8195 15.5432Z" fill="#50B3FF"/>
<path d="M28.5689 19.1833C28.634 19.1718 28.6993 19.1619 28.7649 19.1537C28.8305 19.1455 28.8962 19.1388 28.9622 19.1338C29.028 19.1286 29.094 19.1251 29.1602 19.1233C29.2262 19.1215 29.2923 19.1213 29.3583 19.1228C29.4244 19.1242 29.4904 19.1272 29.5563 19.1318C29.6222 19.1364 29.688 19.1427 29.7537 19.1506C29.8193 19.1584 29.8847 19.1678 29.9498 19.1789C30.015 19.19 30.0798 19.2027 30.1444 19.2168C30.209 19.2311 30.2732 19.2469 30.3369 19.2642C30.4007 19.2816 30.464 19.3006 30.5268 19.321C30.5897 19.3415 30.652 19.3635 30.7138 19.387C30.7755 19.4105 30.8367 19.4355 30.8972 19.4621C30.9578 19.4886 31.0177 19.5166 31.0768 19.546C31.136 19.5754 31.1944 19.6063 31.252 19.6386C31.3097 19.6709 31.3666 19.7046 31.4226 19.7397C31.4787 19.7747 31.5338 19.8111 31.5879 19.8489C31.6422 19.8867 31.6955 19.9258 31.7478 19.9662C31.8001 20.0066 31.8514 20.0482 31.9017 20.0911C31.952 20.134 32.0012 20.1782 32.0494 20.2235C32.0975 20.2687 32.1444 20.3152 32.1903 20.3628C32.2362 20.4104 32.2808 20.459 32.3243 20.5088C32.3678 20.5587 32.41 20.6095 32.4509 20.6612C32.492 20.7131 32.5317 20.766 32.5701 20.8198C32.6085 20.8736 32.6455 20.9283 32.6812 20.9838C32.717 21.0395 32.7513 21.096 32.7842 21.1533C32.8173 21.2106 32.8488 21.2686 32.8789 21.3274C32.9089 21.3862 32.9376 21.4458 32.9648 21.506C32.992 21.5662 33.0178 21.6271 33.042 21.6887C33.0662 21.7502 33.0889 21.8122 33.1101 21.8748C33.1313 21.9374 33.151 22.0005 33.1691 22.0641C33.1871 22.1277 33.2037 22.1916 33.2187 22.256C33.2337 22.3204 33.2471 22.3851 33.2589 22.4501C33.2707 22.5151 33.2809 22.5804 33.2895 22.6459C33.2981 22.7115 33.3051 22.7772 33.3105 22.8431C33.3159 22.9089 33.3196 22.9749 33.3218 23.0409C33.324 23.1069 33.3246 23.173 33.3235 23.2392C33.3224 23.3052 33.3197 23.3712 33.3154 23.4371C33.3111 23.5032 33.3052 23.569 33.2977 23.6347C33.2902 23.7004 33.2811 23.7658 33.2704 23.831C33.2597 23.8962 33.2473 23.9611 33.2334 24.0257C33.2196 24.0903 33.2041 24.1545 33.1871 24.2184C33.17 24.2823 33.1514 24.3457 33.1312 24.4086C33.1111 24.4716 33.0894 24.5341 33.0663 24.5959C33.0431 24.6578 33.0184 24.7191 32.9922 24.7798C32.966 24.8405 32.9383 24.9005 32.9091 24.9598C32.88 25.0192 32.8495 25.0777 32.8175 25.1355C32.7855 25.1933 32.7521 25.2504 32.7173 25.3066C32.6825 25.3628 32.6463 25.4181 32.6088 25.4725C32.5713 25.5269 32.5325 25.5804 32.4925 25.6329C32.4523 25.6855 32.4109 25.737 32.3683 25.7875C32.3257 25.8381 32.2818 25.8875 32.2368 25.9358C32.1917 25.9842 32.1455 26.0314 32.0982 26.0774C32.0508 26.1236 32.0023 26.1685 31.9528 26.2122C31.9032 26.256 31.8526 26.2985 31.801 26.3397C31.7494 26.381 31.6967 26.4209 31.6432 26.4596C31.5896 26.4983 31.5351 26.5356 31.4796 26.5716C31.4242 26.6077 31.368 26.6423 31.3109 26.6755C31.2537 26.7087 31.1958 26.7406 31.1371 26.771C31.0784 26.8015 31.019 26.8304 30.959 26.858C30.8989 26.8855 30.8381 26.9115 30.7767 26.936C30.7153 26.9606 30.6534 26.9836 30.591 27.0051C30.5285 27.0266 30.4655 27.0466 30.402 27.0651C30.3386 27.0835 30.2746 27.1004 30.2103 27.1157C30.1461 27.131 30.0815 27.1447 30.0165 27.1569C29.9511 27.169 29.8854 27.1796 29.8195 27.1887C29.7535 27.1976 29.6875 27.205 29.6212 27.2108C29.5549 27.2165 29.4885 27.2206 29.422 27.2231C29.3555 27.2256 29.2891 27.2264 29.2225 27.2255C29.1559 27.2248 29.0895 27.2223 29.0231 27.2182C28.9567 27.2141 28.8904 27.2084 28.8243 27.201C28.7582 27.1936 28.6923 27.1847 28.6266 27.1741C28.5609 27.1635 28.4956 27.1512 28.4305 27.1374C28.3654 27.1236 28.3007 27.1082 28.2363 27.0912C28.172 27.0743 28.1082 27.0557 28.0448 27.0355C27.9813 27.0154 27.9184 26.9936 27.8561 26.9704C27.7937 26.9471 27.732 26.9223 27.6709 26.8961C27.6098 26.8698 27.5494 26.842 27.4897 26.8127C27.4299 26.7835 27.3709 26.7528 27.3127 26.7206C27.2544 26.6885 27.197 26.6549 27.1404 26.6199C27.0838 26.5848 27.0282 26.5484 26.9734 26.5107C26.9185 26.473 26.8647 26.4339 26.8119 26.3935C26.759 26.3531 26.7071 26.3114 26.6563 26.2684C26.6055 26.2255 26.5558 26.1814 26.5072 26.136C26.4585 26.0906 26.4111 26.044 26.3647 25.9962C26.3184 25.9485 26.2732 25.8997 26.2292 25.8498C26.1853 25.7998 26.1426 25.7488 26.1012 25.6967C26.0598 25.6446 26.0197 25.5915 25.9809 25.5376C25.9421 25.4835 25.9046 25.4285 25.8685 25.3726C25.8324 25.3167 25.7976 25.26 25.7643 25.2024C25.731 25.1449 25.6992 25.0865 25.6687 25.0273C25.6382 24.9681 25.6093 24.9082 25.5819 24.8476C25.5544 24.7871 25.5284 24.7259 25.504 24.664C25.4795 24.6021 25.4566 24.5396 25.4352 24.4766C25.4138 24.4136 25.3939 24.3501 25.3757 24.2862C25.3574 24.2222 25.3407 24.1578 25.3256 24.093C25.3105 24.0282 25.2971 23.9631 25.2852 23.8976C25.2733 23.8322 25.263 23.7664 25.2543 23.7005C25.2457 23.6346 25.2387 23.5684 25.2333 23.5021C25.2279 23.4358 25.2242 23.3693 25.2221 23.3028C25.22 23.2363 25.2195 23.1698 25.2206 23.1033C25.2218 23.0368 25.2246 22.9703 25.2291 22.904C25.2334 22.8376 25.2395 22.7713 25.2472 22.7052C25.2549 22.6391 25.2642 22.5733 25.2752 22.5076C25.2861 22.442 25.2987 22.3768 25.3128 22.3118C25.3269 22.2467 25.3426 22.182 25.36 22.1178C25.3774 22.0535 25.3963 21.9898 25.4168 21.9265C25.4372 21.8632 25.4593 21.8005 25.4829 21.7382C25.5065 21.676 25.5315 21.6144 25.5581 21.5534C25.5847 21.4925 25.6128 21.4322 25.6424 21.3725C25.6719 21.313 25.703 21.2541 25.7355 21.1961C25.768 21.138 25.8018 21.0808 25.8371 21.0244C25.8724 20.9679 25.9091 20.9125 25.947 20.8579C25.9851 20.8033 26.0245 20.7497 26.0651 20.6971C26.1058 20.6444 26.1478 20.5927 26.191 20.5422C26.2342 20.4916 26.2786 20.442 26.3243 20.3936C26.3699 20.3453 26.4167 20.298 26.4646 20.2519C26.5127 20.2058 26.5618 20.1609 26.6119 20.1173C26.6621 20.0736 26.7133 20.0311 26.7657 19.9899C26.8179 19.9488 26.8712 19.909 26.9254 19.8705C26.9796 19.8319 27.0348 19.7948 27.0908 19.759C27.147 19.7231 27.2039 19.6887 27.2617 19.6558C27.3195 19.6227 27.378 19.5912 27.4373 19.561C27.4967 19.5309 27.5567 19.5023 27.6174 19.4751C27.6781 19.4479 27.7395 19.4223 27.8014 19.3981C27.8635 19.374 27.926 19.3513 27.9891 19.3303C28.0522 19.3092 28.1158 19.2897 28.18 19.2718C28.244 19.2538 28.3085 19.2374 28.3734 19.2227C28.4382 19.2079 28.5034 19.1948 28.5689 19.1833Z" fill="white"/>
<path d="M46.8727 30.6877L58.4461 30.6992C58.3475 34.5122 57.4512 38.1686 55.8977 41.6406L55.4893 42.4862C51.9924 42.4204 48.4851 42.4717 44.9872 42.4701C46.1557 38.6115 46.6463 34.6992 46.8727 30.6877Z" fill="#50B3FF"/>
<path d="M0 30.6754C3.84261 30.6242 7.69307 30.6675 11.5364 30.6774C11.5882 34.744 12.3038 38.534 13.3812 42.4391L3.07323 42.414C1.17705 38.6586 0.27435 34.8558 0 30.6754Z" fill="#50B3FF"/>
<path d="M3.67817 15.5417L13.9332 15.553C13.273 17.5738 12.7778 19.6229 12.3061 21.6935C10.3148 20.4439 8.81688 18.6499 7.11554 17.0691C6.99392 16.956 6.81992 16.7977 6.65591 16.7512C6.42681 16.6863 6.09693 16.7169 5.89466 16.8518C5.7435 16.9526 5.6757 17.0744 5.64173 17.2504C5.44346 18.2758 7.77771 21.2333 8.40435 22.0895C9.40126 23.4046 10.4801 24.6487 11.6409 25.8219C11.6046 26.7815 11.5545 27.7404 11.4906 28.6985L0.0535278 28.7067C0.0540988 24.1602 1.44298 19.4834 3.67817 15.5417Z" fill="#50B3FF"/>
<path d="M44.6903 15.5601L54.9228 15.5623C57.1353 19.5179 58.4413 24.1393 58.4488 28.6916L47.1527 28.6919L46.9429 28.6619C46.7037 28.2679 46.8 26.7811 46.7645 26.2498C48.6864 24.1445 51.6398 20.8347 52.6721 18.1644C52.7952 17.8462 52.9344 17.4133 52.7465 17.0922C52.6222 16.8796 52.3373 16.7508 52.0953 16.734C51.814 16.7146 51.477 17.0484 51.2766 17.2299C50.7154 17.7379 50.2298 18.3552 49.71 18.9066C49.2004 19.4548 48.6646 19.976 48.1025 20.4704C47.5406 20.9646 46.9553 21.4295 46.3465 21.865C45.9045 19.7026 45.43 17.6464 44.6903 15.5601Z" fill="#50B3FF"/>
<path d="M16.1357 44.3752L28.4003 44.3764L28.3935 57.5523C27.5398 57.5198 26.6272 57.2009 25.8551 56.8512C21.2042 54.7436 17.8911 48.9782 16.1357 44.3752Z" fill="#CC0A0A"/>
<path d="M30.3759 44.3879L42.3014 44.3912C41.1252 47.4262 39.5457 50.3576 37.5245 52.9133C35.3821 55.4345 33.6027 56.7313 30.3958 57.5751L30.3759 44.3879Z" fill="#CC0A0A"/>
<path d="M27.9972 0.506557C28.122 0.498278 28.1759 0.507129 28.2866 0.565796C28.4287 0.945061 28.3585 12.138 28.3688 13.7053L17.0342 13.6879C16.8751 13.695 16.7901 13.7026 16.6514 13.6188C16.6301 13.0427 17.9129 10.6595 18.2444 10.0334C20.3647 6.02753 23.5086 1.88659 27.9972 0.506557Z" fill="#EAF1F6"/>
<path d="M15.7485 30.661C16.0918 30.6558 16.4359 30.662 16.7792 30.6628C19.2813 32.6496 21.8417 34.0271 24.7829 35.251L23.8561 42.4633L22.3693 42.4519L15.469 42.411C14.0684 39.0772 13.5622 34.2839 13.4048 30.6858C14.185 30.6642 14.968 30.6687 15.7485 30.661Z" fill="#50B3FF"/>
<path d="M30.3183 0.486328C30.8426 0.634637 31.3616 0.797789 31.8605 1.01804C36.626 3.12277 40.2434 8.99103 42.0895 13.7125L30.2637 13.7078C30.1727 9.30906 30.303 4.88777 30.3183 0.486328Z" fill="#EAF1F6"/>
<path d="M41.7194 30.7191L45.0366 30.7131C44.7467 34.7529 44.27 38.628 42.9491 42.4771L36.9288 42.4758L34.6778 42.4801L33.6174 35.3317C36.7691 34.0373 39.0042 32.7622 41.7194 30.7191Z" fill="#50B3FF"/>
<path d="M44.3103 44.3669C45.4698 44.42 46.6497 44.3815 47.8109 44.3825L54.4682 44.3859C53.6943 45.4788 52.994 46.6193 52.1742 47.6805C51.8523 48.0945 51.5193 48.4994 51.1752 48.8951C50.8311 49.2909 50.4764 49.6769 50.1112 50.0532C49.746 50.4296 49.3707 50.7957 48.9854 51.1515C48.6002 51.5073 48.2055 51.8522 47.8013 52.1863C47.3972 52.5205 46.9842 52.8435 46.5624 53.1551C46.1405 53.4667 45.7105 53.7665 45.2722 54.0545C44.834 54.3426 44.3882 54.6185 43.9349 54.8822C43.4815 55.1458 43.0214 55.3968 42.5543 55.6353C39.9922 56.8179 37.4954 57.759 34.6608 57.9999C38.8993 55.5553 42.9381 49.0356 44.3103 44.3669Z" fill="#CC0A0A"/>
<path d="M4.15607 44.3963C7.44884 44.2847 10.7799 44.381 14.0765 44.3885C14.092 44.4574 14.1066 44.5265 14.1256 44.5946C14.4104 45.6132 14.9154 46.617 15.3744 47.5689C17.2391 51.4363 19.9877 55.7981 23.81 57.9638C22.4833 57.9819 20.8816 57.458 19.6069 57.0554C13.5528 55.1432 7.09384 50.0655 4.15607 44.3963Z" fill="#CC0A0A"/>
<path d="M33.6962 0C34.2499 0.0195556 34.8851 0.190988 35.4253 0.322596C35.6627 0.378551 35.8994 0.437408 36.1354 0.499167C36.3713 0.561022 36.6064 0.625732 36.8408 0.693296C37.0752 0.760956 37.3087 0.83147 37.5414 0.904839C37.774 0.978303 38.0056 1.05458 38.2364 1.13366C38.4672 1.21283 38.6969 1.29481 38.9256 1.3796C39.1542 1.46439 39.3819 1.55198 39.6084 1.64239C39.835 1.73289 40.0604 1.82614 40.2846 1.92216C40.5088 2.01818 40.7318 2.11696 40.9536 2.21849C41.1755 2.32003 41.396 2.42428 41.6151 2.53124C41.8344 2.6383 42.0522 2.74802 42.2687 2.8604C42.4852 2.97279 42.7003 3.08779 42.9139 3.20541C43.1276 3.32312 43.3397 3.44346 43.5504 3.5664C43.7611 3.68935 43.9702 3.81492 44.1778 3.9431C44.3854 4.07119 44.5914 4.20184 44.7957 4.33507C45 4.46829 45.2026 4.60404 45.4036 4.74231C45.6046 4.88048 45.8038 5.02118 46.0013 5.1644C46.1988 5.30752 46.3945 5.45307 46.5884 5.60105C46.7823 5.74912 46.9743 5.89952 47.1645 6.05225C47.3547 6.20499 47.543 6.36005 47.7293 6.51745C47.9156 6.67494 48.1 6.83467 48.2824 6.99663C48.4648 7.1586 48.6451 7.3228 48.8234 7.48923C49.0018 7.65567 49.178 7.8243 49.3521 7.99511C49.5263 8.16583 49.6983 8.33874 49.8683 8.51383C50.0382 8.68884 50.2058 8.86598 50.3713 9.04526C50.5368 9.22445 50.7001 9.40564 50.8611 9.58882C51.0221 9.77211 51.1808 9.95734 51.3373 10.1445C51.4937 10.3316 51.6478 10.5206 51.7995 10.7116C51.9512 10.9026 52.1006 11.0955 52.2475 11.2902C52.3945 11.4849 52.5391 11.6813 52.6812 11.8795C52.8233 12.0778 52.963 12.2777 53.1001 12.4795C53.2373 12.6811 53.372 12.8845 53.5042 13.0896C53.6363 13.2946 53.7659 13.5013 53.8929 13.7095L44.0327 13.7054C42.0515 8.44817 38.7878 2.74164 33.6962 0Z" fill="#EAF1F6"/>
<path d="M24.4071 0.0969238L24.4765 0.100065C24.3676 0.305185 23.7368 0.602372 23.5107 0.757961C22.7737 1.26512 22.0951 1.92488 21.4517 2.54623C18.2147 5.67099 16.2816 9.57869 14.6486 13.7079L4.91303 13.7065C4.81553 13.6855 4.86121 13.7105 4.78955 13.6109C4.86863 13.4761 4.95038 13.343 5.03478 13.2116C9.50446 6.26437 16.4113 1.83823 24.4071 0.0969238Z" fill="#EAF1F6"/>
<path d="M13.5411 27.6582C13.9313 27.9528 14.3259 28.3299 14.6565 28.6925C14.2658 28.7183 13.8694 28.7192 13.4778 28.7316C13.4777 28.3681 13.5021 28.0191 13.5411 27.6582Z" fill="#50B3FF"/>
<path d="M44.9437 27.7625C44.9507 27.7697 44.9593 27.7759 44.9645 27.7844C45.0864 27.983 45.0166 28.4442 45.0102 28.678L43.9922 28.6917L43.9713 28.6817L43.9572 28.5988C44.2839 28.3175 44.6127 28.0387 44.9437 27.7625Z" fill="#50B3FF"/>
</svg>
