<svg width="13" height="13" viewBox="0 0 13 13" fill="none" xmlns="http://www.w3.org/2000/svg">
<rect width="13" height="13" fill="#F5F5F5"/>
<path d="M-413.418 -1653C-413.418 -1654.1 -412.523 -1655 -411.418 -1655H1856.58C1857.69 -1655 1858.58 -1654.1 1858.58 -1653V3379C1858.58 3380.1 1857.69 3381 1856.58 3381H-411.418C-412.523 3381 -413.418 3380.1 -413.418 3379V-1653Z" fill="white"/>
<path d="M-411.418 -1655V-1654H1856.58V-1655V-1656H-411.418V-1655ZM1858.58 -1653H1857.58V3379H1858.58H1859.58V-1653H1858.58ZM1856.58 3381V3380H-411.418V3381V3382H1856.58V3381ZM-413.418 3379H-412.418V-1653H-413.418H-414.418V3379H-413.418ZM-411.418 3381V3380C-411.97 3380 -412.418 3379.55 -412.418 3379H-413.418H-414.418C-414.418 3380.66 -413.075 3382 -411.418 3382V3381ZM1858.58 3379H1857.58C1857.58 3379.55 1857.13 3380 1856.58 3380V3381V3382C1858.24 3382 1859.58 3380.66 1859.58 3379H1858.58ZM1856.58 -1655V-1654C1857.13 -1654 1857.58 -1653.55 1857.58 -1653H1858.58H1859.58C1859.58 -1654.66 1858.24 -1656 1856.58 -1656V-1655ZM-411.418 -1655V-1656C-413.075 -1656 -414.418 -1654.66 -414.418 -1653H-413.418H-412.418C-412.418 -1653.55 -411.97 -1654 -411.418 -1654V-1655Z" fill="black" fill-opacity="0.1"/>
<rect width="1280" height="2794.97" transform="translate(-376.418 -1596)" fill="white"/>
<rect x="-321.418" y="-36" width="370" height="116" rx="10" fill="white" fill-opacity="0.64"/>
<rect x="-321.268" y="-35.85" width="369.7" height="115.7" rx="9.85" stroke="black" stroke-opacity="0.2" stroke-width="0.3"/>
<path d="M0.582021 1C0.582021 1.55 1.03202 2 1.58202 2H9.17202L0.292021 10.88C0.199439 10.9726 0.125999 11.0825 0.0758939 11.2035C0.0257889 11.3244 3.08483e-09 11.4541 0 11.585C-3.08483e-09 11.7159 0.0257889 11.8456 0.0758939 11.9665C0.125999 12.0875 0.199439 12.1974 0.292021 12.29C0.384603 12.3826 0.494513 12.456 0.615478 12.5061C0.736442 12.5562 0.86609 12.582 0.997021 12.582C1.12795 12.582 1.2576 12.5562 1.37856 12.5061C1.49953 12.456 1.60944 12.3826 1.70202 12.29L10.582 3.41V11C10.582 11.55 11.032 12 11.582 12C12.132 12 12.582 11.55 12.582 11V1C12.582 0.45 12.132 0 11.582 0H1.58202C1.03202 0 0.582021 0.45 0.582021 1Z" fill="black" fill-opacity="0.54"/>
</svg>
